<svg width="29" height="28" viewBox="0 0 29 28" fill="none" xmlns="http://www.w3.org/2000/svg">
<path d="M14.3685 19.4156C17.4045 19.4156 19.8658 17.0164 19.8658 14.0569C19.8658 11.0974 17.4045 8.69824 14.3685 8.69824C11.3325 8.69824 8.87134 11.0974 8.87134 14.0569C8.87134 17.0164 11.3325 19.4156 14.3685 19.4156Z" stroke="white" stroke-width="2.7595" stroke-linecap="round" stroke-linejoin="round"/>
<path d="M2 19.4156V8.69832C2 4.99895 5.07649 2 8.87151 2H19.8659C23.6609 2 26.7374 4.99895 26.7374 8.69832V19.4156C26.7374 23.115 23.6609 26.114 19.8659 26.114H8.87151C5.07649 26.114 2 23.115 2 19.4156Z" stroke="white" stroke-width="2.7595"/>
<path d="M21.9272 6.70214L21.9419 6.68726" stroke="white" stroke-width="2.7595" stroke-linecap="round" stroke-linejoin="round"/>
</svg>
