<svg width="34" height="28" viewBox="0 0 34 28" fill="none" xmlns="http://www.w3.org/2000/svg">
<path d="M32 1.5684C32 1.5684 29.2483 3.19302 27.7182 3.6535C26.8969 2.70976 25.8054 2.04087 24.5914 1.73728C23.3773 1.4337 22.0993 1.51005 20.9301 1.95605C19.761 2.40204 18.7569 3.19614 18.0541 4.23094C17.3511 5.26575 16.9832 6.49132 17 7.74194V9.10475C14.6035 9.16684 12.229 8.63568 10.0877 7.55856C7.94646 6.48143 6.10498 4.89179 4.72727 2.93121C4.72727 2.93121 -0.727273 15.1966 11.5455 20.6478C8.73709 22.5529 5.39158 23.5082 2 23.3734C14.2727 30.1875 29.2727 23.3734 29.2727 7.70105C29.2715 7.32144 29.235 6.94277 29.1636 6.56992C30.5554 5.19823 32 1.5684 32 1.5684Z" stroke="white" stroke-width="2.25777" stroke-linecap="round" stroke-linejoin="round"/>
</svg>
