<svg width="35" height="29" viewBox="0 0 35 29" fill="none" xmlns="http://www.w3.org/2000/svg">
<path d="M20.437 14.5816L14.9407 18.0798V11.0835L20.437 14.5816Z" fill="white" stroke="white" stroke-width="3" stroke-linecap="round" stroke-linejoin="round"/>
<path d="M1.59253 15.8191V13.344C1.59253 8.27983 1.59253 5.74778 3.01449 4.11858C4.43647 2.48937 6.67515 2.41885 11.1525 2.27781C13.2741 2.21098 15.4414 2.16309 17.2963 2.16309C19.1512 2.16309 21.3185 2.21098 23.4401 2.27781C27.9174 2.41885 30.1561 2.48937 31.5781 4.11858C33.0001 5.74778 33.0001 8.27983 33.0001 13.344V15.8191C33.0001 20.8832 33.0001 23.4153 31.5781 25.0444C30.1561 26.6736 27.9175 26.7441 23.4402 26.8853C21.3185 26.9521 19.1512 27 17.2963 27C15.4414 27 13.274 26.9521 11.1524 26.8853C6.67507 26.7441 4.43644 26.6736 3.01447 25.0444C1.59253 23.4153 1.59253 20.8832 1.59253 15.8191Z" stroke="white" stroke-width="3"/>
</svg>
