<?xml version="1.0" encoding="UTF-8" ?>
<!DOCTYPE svg PUBLIC "-//W3C//DTD SVG 1.1//EN" "http://www.w3.org/Graphics/SVG/1.1/DTD/svg11.dtd">
<svg width="809pt" height="297pt" viewBox="0 0 809 297" version="1.1" xmlns="http://www.w3.org/2000/svg">
<g id="#1e81e1ff">
<path fill="#1e81e1" opacity="1.00" d=" M 63.81 7.59 C 79.84 1.24 97.51 -0.50 114.56 1.73 C 137.97 4.37 160.75 15.13 176.35 32.99 C 168.76 36.50 162.02 41.49 155.07 46.07 C 145.18 52.66 135.35 59.36 125.48 65.98 C 117.54 61.23 108.17 59.45 99.00 59.52 C 87.33 59.77 75.77 65.30 68.47 74.44 C 61.49 85.05 59.75 98.32 60.94 110.76 C 43.90 123.24 26.48 135.33 10.80 149.52 C 5.17 137.50 3.13 124.15 2.14 111.01 C 0.57 85.93 6.70 59.97 21.40 39.38 C 32.16 25.06 47.18 14.12 63.81 7.59 Z" />
<path fill="#1e81e1" opacity="1.00" d=" M 190.77 92.77 C 195.11 89.99 199.18 86.58 204.16 84.98 C 206.07 93.20 207.04 101.61 207.21 110.04 C 208.00 130.82 208.21 151.61 208.20 172.39 C 188.66 169.62 169.13 166.72 149.59 163.94 L 149.59 163.87 C 149.46 149.83 149.45 135.79 148.90 121.76 L 148.86 121.03 C 162.83 111.61 176.75 102.11 190.77 92.77 Z" />
<path fill="#1e81e1" opacity="1.00" d=" M 71.95 211.99 C 117.49 218.52 163.02 225.16 208.55 231.76 C 208.74 243.17 209.10 254.59 209.65 266.00 C 210.13 274.39 206.85 282.92 200.76 288.73 C 195.88 293.52 189.27 296.35 182.49 297.00 L 178.19 297.00 C 168.87 296.32 161.05 290.71 154.23 284.79 C 126.26 261.15 99.25 236.40 71.95 211.99 Z" />
</g>
<g id="#0c0c22ff">
<path fill="#0c0c22" opacity="1.00" d=" M 176.35 32.99 C 190.90 26.42 206.97 23.02 222.95 23.58 C 240.47 24.18 257.78 29.83 272.22 39.79 C 292.82 53.97 307.95 75.84 314.13 100.06 C 320.75 125.43 317.19 153.03 305.47 176.37 C 294.11 195.68 277.96 212.53 257.98 222.95 C 242.97 230.99 225.42 234.12 208.55 231.76 C 163.02 225.16 117.49 218.52 71.95 211.99 C 58.66 210.07 45.37 208.13 32.07 206.23 C 21.89 205.42 11.97 200.23 6.37 191.55 C -2.42 178.83 -0.59 160.08 10.80 149.52 C 26.48 135.33 43.90 123.24 60.94 110.76 C 82.24 95.53 103.83 80.70 125.48 65.98 C 135.35 59.36 145.18 52.66 155.07 46.07 C 162.02 41.49 168.76 36.50 176.35 32.99 M 204.16 84.98 C 199.18 86.58 195.11 89.99 190.77 92.77 C 176.75 102.11 162.83 111.61 148.86 121.03 L 148.90 121.76 L 148.85 121.08 C 131.78 132.71 114.95 144.70 97.90 156.34 C 115.11 158.97 132.35 161.39 149.59 163.87 L 149.59 163.94 C 169.13 166.72 188.66 169.62 208.20 172.39 C 214.56 173.24 221.26 174.95 227.46 172.42 C 238.63 167.81 247.30 158.68 253.66 148.62 C 259.73 136.07 260.74 120.82 255.04 107.94 C 250.26 97.11 241.51 87.39 229.95 83.81 C 221.54 81.10 212.42 82.25 204.16 84.98 Z" />
<path fill="#0c0c22" opacity="1.00" d=" M 385.23 115.22 C 394.30 113.96 404.00 115.22 411.86 120.14 C 421.27 125.97 427.58 136.12 429.49 146.94 C 430.96 155.64 430.79 164.75 428.25 173.24 C 424.82 184.63 415.97 194.47 404.62 198.32 C 396.79 200.93 388.16 201.05 380.22 198.87 C 367.75 195.38 358.06 184.61 354.74 172.25 C 352.07 161.93 352.16 150.75 355.49 140.58 C 359.77 127.55 371.42 116.91 385.23 115.22 M 388.44 136.59 C 381.25 137.68 376.04 144.13 374.50 150.95 C 372.77 158.66 373.79 167.63 379.35 173.62 C 385.80 180.94 398.90 180.55 404.75 172.67 C 410.94 164.62 411.15 152.55 405.86 143.99 C 402.35 138.12 395.07 135.26 388.44 136.59 Z" />
<path fill="#0c0c22" opacity="1.00" d=" M 691.17 115.23 C 700.25 113.96 709.97 115.20 717.84 120.13 C 727.26 125.96 733.57 136.10 735.48 146.93 C 736.96 155.63 736.79 164.73 734.25 173.22 C 730.76 184.86 721.58 194.90 709.88 198.57 C 702.25 200.93 693.92 200.98 686.23 198.88 C 673.54 195.33 663.75 184.25 660.56 171.62 C 658.11 161.48 658.22 150.57 661.47 140.62 C 665.74 127.60 677.37 116.95 691.17 115.23 M 694.37 136.60 C 687.24 137.72 682.07 144.12 680.52 150.88 C 678.76 158.61 679.77 167.60 685.34 173.61 C 691.77 180.92 704.84 180.56 710.71 172.72 C 717.06 164.50 717.20 152.02 711.49 143.44 C 707.88 137.87 700.78 135.32 694.37 136.60 Z" />
<path fill="#0c0c22" opacity="1.00" d=" M 438.18 119.16 C 441.30 116.86 445.37 117.24 449.02 117.18 C 456.59 117.29 464.18 117.01 471.75 117.33 C 479.94 118.00 485.89 124.95 488.81 132.12 C 492.95 143.16 490.39 157.88 479.90 164.52 C 483.26 170.24 487.35 175.52 490.87 181.15 C 493.02 184.67 493.80 189.61 491.10 193.06 C 488.58 196.23 485.11 199.14 480.95 199.59 C 477.87 199.85 475.49 197.42 473.91 195.09 C 467.98 186.23 462.07 177.36 456.20 168.47 C 456.08 175.99 456.36 183.51 456.07 191.02 C 455.92 194.63 453.53 198.17 449.92 199.08 C 446.29 199.96 442.15 200.00 438.81 198.14 C 435.66 196.31 434.60 192.44 434.70 189.02 C 434.68 168.70 434.69 148.38 434.69 128.05 C 434.63 124.81 435.40 121.17 438.18 119.16 M 456.20 133.87 C 456.18 140.12 456.18 146.37 456.20 152.62 C 460.32 152.42 465.06 153.44 468.61 150.76 C 472.12 147.54 472.03 141.77 470.23 137.70 C 467.43 132.72 460.94 134.05 456.20 133.87 Z" />
<path fill="#0c0c22" opacity="1.00" d=" M 504.48 117.65 C 508.22 116.93 512.54 116.89 515.76 119.21 C 518.49 121.22 519.23 124.82 519.18 128.02 C 519.20 143.00 519.17 157.99 519.19 172.97 C 519.11 175.49 519.68 178.55 522.19 179.76 C 526.33 181.86 533.58 180.67 533.79 175.03 C 534.01 159.39 533.79 143.73 533.89 128.08 C 533.79 124.47 534.91 120.29 538.38 118.53 C 542.15 116.76 546.82 116.75 550.64 118.40 C 554.30 120.07 555.51 124.38 555.41 128.09 C 555.44 144.70 555.48 161.30 555.39 177.91 C 555.40 184.22 552.63 190.72 547.21 194.21 C 534.50 202.72 516.16 202.40 504.10 192.84 C 499.49 189.00 497.54 182.82 497.69 176.97 C 497.71 160.34 497.64 143.71 497.72 127.09 C 497.52 122.87 500.14 118.46 504.48 117.65 Z" />
<path fill="#0c0c22" opacity="1.00" d=" M 565.79 118.78 C 570.78 116.19 578.20 116.46 581.73 121.34 C 589.76 132.20 597.83 143.04 605.92 153.86 C 605.99 144.91 605.87 135.97 605.97 127.02 C 605.90 123.45 607.61 119.55 611.11 118.20 C 614.75 116.83 619.04 116.82 622.62 118.37 C 626.27 120.01 627.55 124.28 627.42 127.98 C 627.44 148.32 627.45 168.65 627.42 188.98 C 627.50 192.47 626.42 196.44 623.15 198.23 C 618.17 200.75 611.14 200.14 607.59 195.49 C 599.39 184.67 591.35 173.72 583.18 162.87 C 583.15 171.90 583.25 180.92 583.14 189.94 C 583.19 193.56 581.38 197.49 577.79 198.77 C 573.97 200.06 569.47 200.09 565.86 198.17 C 562.67 196.35 561.60 192.45 561.70 189.00 C 561.67 169.68 561.71 150.36 561.68 131.04 C 561.55 126.72 561.54 121.27 565.79 118.78 Z" />
<path fill="#0c0c22" opacity="1.00" d=" M 639.52 117.64 C 643.25 116.93 647.55 116.89 650.76 119.21 C 653.49 121.22 654.22 124.82 654.18 128.02 C 654.19 148.36 654.20 168.70 654.18 189.05 C 654.26 192.49 653.18 196.39 649.99 198.19 C 643.77 201.63 632.85 199.47 632.80 190.92 C 632.57 169.63 632.71 148.34 632.72 127.05 C 632.53 122.83 635.18 118.44 639.52 117.64 Z" />
<path fill="#0c0c22" opacity="1.00" d=" M 740.79 125.99 C 740.94 116.17 755.64 114.30 760.69 121.29 C 768.74 132.18 776.84 143.03 784.93 153.89 C 784.98 144.92 784.88 135.94 784.97 126.97 C 784.86 123.11 787.01 118.97 790.93 117.88 C 794.63 116.86 798.91 116.84 802.34 118.76 C 805.52 120.62 806.50 124.55 806.42 128.00 C 806.46 147.33 806.41 166.65 806.45 185.98 C 806.43 189.70 806.67 194.02 803.86 196.90 C 800.80 199.89 795.95 200.12 792.01 199.17 C 788.80 198.34 786.58 195.72 784.77 193.13 C 777.25 183.04 769.74 172.94 762.18 162.88 C 762.15 171.90 762.25 180.93 762.14 189.95 C 762.25 193.88 759.98 198.06 755.97 199.06 C 752.14 199.99 747.68 200.05 744.28 197.80 C 741.16 195.62 740.57 191.52 740.68 187.99 C 740.77 167.32 740.54 146.65 740.79 125.99 Z" />
</g>
</svg>
